<?xml version="1.0" encoding="UTF-8" standalone="no"?>
<!DOCTYPE svg PUBLIC "-//W3C//DTD SVG 1.1//EN"
 "http://www.w3.org/Graphics/SVG/1.1/DTD/svg11.dtd">
<!-- Generated by graphviz version 2.43.0 (0)
 -->
<!-- Title: G Pages: 1 -->
<svg width="1511pt" height="569pt"
 viewBox="0.00 0.00 1511.19 569.00" xmlns="http://www.w3.org/2000/svg" xmlns:xlink="http://www.w3.org/1999/xlink">
<g id="graph0" class="graph" transform="scale(1 1) rotate(0) translate(4 565)">
<title>G</title>
<polygon fill="white" stroke="transparent" points="-4,4 -4,-565 1507.19,-565 1507.19,4 -4,4"/>
<!-- base_link -->
<g id="node1" class="node">
<title>base_link</title>
<polygon fill="none" stroke="black" points="941.69,-561 858.69,-561 858.69,-525 941.69,-525 941.69,-561"/>
<text text-anchor="middle" x="900.19" y="-539.3" font-family="Times,serif" font-size="14.00">base_link</text>
</g>
<!-- base_to_left_leg -->
<g id="node17" class="node">
<title>base_to_left_leg</title>
<ellipse fill="none" stroke="blue" cx="615.19" cy="-441" rx="84.49" ry="18"/>
<text text-anchor="middle" x="615.19" y="-437.3" font-family="Times,serif" font-size="14.00" fill="blue">base_to_left_leg</text>
</g>
<!-- base_link&#45;&gt;base_to_left_leg -->
<g id="edge1" class="edge">
<title>base_link&#45;&gt;base_to_left_leg</title>
<path fill="none" stroke="black" d="M858.5,-539.1C819.47,-535.28 760.15,-526.56 712.19,-507 686.8,-496.64 661.15,-479.08 642.62,-464.82"/>
<polygon fill="black" stroke="black" points="644.65,-461.97 634.63,-458.54 640.32,-467.47 644.65,-461.97"/>
<text text-anchor="middle" x="771.69" y="-495.8" font-family="Times,serif" font-size="14.00">xyz: 0 0.22 0.25 </text>
<text text-anchor="middle" x="771.69" y="-480.8" font-family="Times,serif" font-size="14.00">rpy: 0 &#45;0 0</text>
</g>
<!-- base_to_right_leg -->
<g id="node21" class="node">
<title>base_to_right_leg</title>
<ellipse fill="none" stroke="blue" cx="813.19" cy="-441" rx="91.78" ry="18"/>
<text text-anchor="middle" x="813.19" y="-437.3" font-family="Times,serif" font-size="14.00" fill="blue">base_to_right_leg</text>
</g>
<!-- base_link&#45;&gt;base_to_right_leg -->
<g id="edge9" class="edge">
<title>base_link&#45;&gt;base_to_right_leg</title>
<path fill="none" stroke="black" d="M876.78,-525C870.09,-519.61 863.04,-513.39 857.19,-507 846.23,-495.03 835.95,-480.13 828.08,-467.62"/>
<polygon fill="black" stroke="black" points="831.01,-465.7 822.8,-459 825.04,-469.36 831.01,-465.7"/>
<text text-anchor="middle" x="919.19" y="-495.8" font-family="Times,serif" font-size="14.00">xyz: 0 &#45;0.22 0.25 </text>
<text text-anchor="middle" x="919.19" y="-480.8" font-family="Times,serif" font-size="14.00">rpy: 0 &#45;0 0</text>
</g>
<!-- gripper_extension -->
<g id="node25" class="node">
<title>gripper_extension</title>
<ellipse fill="none" stroke="blue" cx="1018.19" cy="-441" rx="94.78" ry="18"/>
<text text-anchor="middle" x="1018.19" y="-437.3" font-family="Times,serif" font-size="14.00" fill="blue">gripper_extension</text>
</g>
<!-- base_link&#45;&gt;gripper_extension -->
<g id="edge17" class="edge">
<title>base_link&#45;&gt;gripper_extension</title>
<path fill="none" stroke="black" d="M941.89,-529.91C955.52,-524.5 970.01,-517.02 981.19,-507 992.83,-496.57 1001.7,-481.59 1007.83,-468.63"/>
<polygon fill="black" stroke="black" points="1011.15,-469.79 1011.99,-459.23 1004.75,-466.96 1011.15,-469.79"/>
<text text-anchor="middle" x="1058.19" y="-495.8" font-family="Times,serif" font-size="14.00">xyz: 0.19 0 0.2 </text>
<text text-anchor="middle" x="1058.19" y="-480.8" font-family="Times,serif" font-size="14.00">rpy: 0 &#45;0 0</text>
</g>
<!-- head_swivel -->
<g id="node30" class="node">
<title>head_swivel</title>
<ellipse fill="none" stroke="blue" cx="1243.19" cy="-441" rx="66.89" ry="18"/>
<text text-anchor="middle" x="1243.19" y="-437.3" font-family="Times,serif" font-size="14.00" fill="blue">head_swivel</text>
</g>
<!-- base_link&#45;&gt;head_swivel -->
<g id="edge27" class="edge">
<title>base_link&#45;&gt;head_swivel</title>
<path fill="none" stroke="black" d="M941.91,-539.2C986.29,-535.32 1058.11,-526.45 1117.19,-507 1150.09,-496.17 1184.89,-477.6 1209.56,-463.08"/>
<polygon fill="black" stroke="black" points="1211.39,-466.07 1218.17,-457.94 1207.79,-460.06 1211.39,-466.07"/>
<text text-anchor="middle" x="1228.19" y="-495.8" font-family="Times,serif" font-size="14.00">xyz: 0 0 0.3 </text>
<text text-anchor="middle" x="1228.19" y="-480.8" font-family="Times,serif" font-size="14.00">rpy: 0 &#45;0 0</text>
</g>
<!-- left_leg -->
<g id="node2" class="node">
<title>left_leg</title>
<polygon fill="none" stroke="black" points="625.69,-386 556.69,-386 556.69,-350 625.69,-350 625.69,-386"/>
<text text-anchor="middle" x="591.19" y="-364.3" font-family="Times,serif" font-size="14.00">left_leg</text>
</g>
<!-- left_base_joint -->
<g id="node18" class="node">
<title>left_base_joint</title>
<ellipse fill="none" stroke="blue" cx="494.19" cy="-266" rx="77.19" ry="18"/>
<text text-anchor="middle" x="494.19" y="-262.3" font-family="Times,serif" font-size="14.00" fill="blue">left_base_joint</text>
</g>
<!-- left_leg&#45;&gt;left_base_joint -->
<g id="edge3" class="edge">
<title>left_leg&#45;&gt;left_base_joint</title>
<path fill="none" stroke="black" d="M574.29,-349.58C558.62,-333.42 535.15,-309.22 517.66,-291.19"/>
<polygon fill="black" stroke="black" points="520.04,-288.63 510.57,-283.89 515.02,-293.5 520.04,-288.63"/>
<text text-anchor="middle" x="603.19" y="-320.8" font-family="Times,serif" font-size="14.00">xyz: 0 0 &#45;0.6 </text>
<text text-anchor="middle" x="603.19" y="-305.8" font-family="Times,serif" font-size="14.00">rpy: 0 &#45;0 0</text>
</g>
<!-- left_base -->
<g id="node3" class="node">
<title>left_base</title>
<polygon fill="none" stroke="black" points="387.19,-211 307.19,-211 307.19,-175 387.19,-175 387.19,-211"/>
<text text-anchor="middle" x="347.19" y="-189.3" font-family="Times,serif" font-size="14.00">left_base</text>
</g>
<!-- left_back_wheel_joint -->
<g id="node19" class="node">
<title>left_back_wheel_joint</title>
<ellipse fill="none" stroke="blue" cx="109.19" cy="-91" rx="109.38" ry="18"/>
<text text-anchor="middle" x="109.19" y="-87.3" font-family="Times,serif" font-size="14.00" fill="blue">left_back_wheel_joint</text>
</g>
<!-- left_base&#45;&gt;left_back_wheel_joint -->
<g id="edge5" class="edge">
<title>left_base&#45;&gt;left_back_wheel_joint</title>
<path fill="none" stroke="black" d="M306.83,-191C269.31,-188.51 212.93,-180.69 170.19,-157 152.82,-147.37 137.53,-131.05 126.6,-117.18"/>
<polygon fill="black" stroke="black" points="129.2,-114.81 120.39,-108.94 123.62,-119.03 129.2,-114.81"/>
<text text-anchor="middle" x="256.69" y="-145.8" font-family="Times,serif" font-size="14.00">xyz: &#45;0.133333 0 &#45;0.085 </text>
<text text-anchor="middle" x="256.69" y="-130.8" font-family="Times,serif" font-size="14.00">rpy: 0 &#45;0 0</text>
</g>
<!-- left_front_wheel_joint -->
<g id="node20" class="node">
<title>left_front_wheel_joint</title>
<ellipse fill="none" stroke="blue" cx="347.19" cy="-91" rx="110.48" ry="18"/>
<text text-anchor="middle" x="347.19" y="-87.3" font-family="Times,serif" font-size="14.00" fill="blue">left_front_wheel_joint</text>
</g>
<!-- left_base&#45;&gt;left_front_wheel_joint -->
<g id="edge7" class="edge">
<title>left_base&#45;&gt;left_front_wheel_joint</title>
<path fill="none" stroke="black" d="M347.19,-174.58C347.19,-159.38 347.19,-137.07 347.19,-119.46"/>
<polygon fill="black" stroke="black" points="350.69,-119.22 347.19,-109.22 343.69,-119.22 350.69,-119.22"/>
<text text-anchor="middle" x="431.69" y="-145.8" font-family="Times,serif" font-size="14.00">xyz: 0.133333 0 &#45;0.085 </text>
<text text-anchor="middle" x="431.69" y="-130.8" font-family="Times,serif" font-size="14.00">rpy: 0 &#45;0 0</text>
</g>
<!-- left_back_wheel -->
<g id="node4" class="node">
<title>left_back_wheel</title>
<polygon fill="none" stroke="black" points="173.69,-36 44.69,-36 44.69,0 173.69,0 173.69,-36"/>
<text text-anchor="middle" x="109.19" y="-14.3" font-family="Times,serif" font-size="14.00">left_back_wheel</text>
</g>
<!-- left_front_wheel -->
<g id="node5" class="node">
<title>left_front_wheel</title>
<polygon fill="none" stroke="black" points="412.69,-36 281.69,-36 281.69,0 412.69,0 412.69,-36"/>
<text text-anchor="middle" x="347.19" y="-14.3" font-family="Times,serif" font-size="14.00">left_front_wheel</text>
</g>
<!-- right_leg -->
<g id="node6" class="node">
<title>right_leg</title>
<polygon fill="none" stroke="black" points="853.19,-386 773.19,-386 773.19,-350 853.19,-350 853.19,-386"/>
<text text-anchor="middle" x="813.19" y="-364.3" font-family="Times,serif" font-size="14.00">right_leg</text>
</g>
<!-- right_base_joint -->
<g id="node22" class="node">
<title>right_base_joint</title>
<ellipse fill="none" stroke="blue" cx="813.19" cy="-266" rx="85.29" ry="18"/>
<text text-anchor="middle" x="813.19" y="-262.3" font-family="Times,serif" font-size="14.00" fill="blue">right_base_joint</text>
</g>
<!-- right_leg&#45;&gt;right_base_joint -->
<g id="edge11" class="edge">
<title>right_leg&#45;&gt;right_base_joint</title>
<path fill="none" stroke="black" d="M813.19,-349.58C813.19,-334.38 813.19,-312.07 813.19,-294.46"/>
<polygon fill="black" stroke="black" points="816.69,-294.22 813.19,-284.22 809.69,-294.22 816.69,-294.22"/>
<text text-anchor="middle" x="859.19" y="-320.8" font-family="Times,serif" font-size="14.00">xyz: 0 0 &#45;0.6 </text>
<text text-anchor="middle" x="859.19" y="-305.8" font-family="Times,serif" font-size="14.00">rpy: 0 &#45;0 0</text>
</g>
<!-- right_base -->
<g id="node7" class="node">
<title>right_base</title>
<polygon fill="none" stroke="black" points="859.19,-211 767.19,-211 767.19,-175 859.19,-175 859.19,-211"/>
<text text-anchor="middle" x="813.19" y="-189.3" font-family="Times,serif" font-size="14.00">right_base</text>
</g>
<!-- right_back_wheel_joint -->
<g id="node23" class="node">
<title>right_back_wheel_joint</title>
<ellipse fill="none" stroke="blue" cx="592.19" cy="-91" rx="116.18" ry="18"/>
<text text-anchor="middle" x="592.19" y="-87.3" font-family="Times,serif" font-size="14.00" fill="blue">right_back_wheel_joint</text>
</g>
<!-- right_base&#45;&gt;right_back_wheel_joint -->
<g id="edge13" class="edge">
<title>right_base&#45;&gt;right_back_wheel_joint</title>
<path fill="none" stroke="black" d="M766.92,-190.1C732.15,-186.86 684.48,-178.47 648.19,-157 632,-147.42 618.15,-131.46 608.27,-117.76"/>
<polygon fill="black" stroke="black" points="610.92,-115.43 602.37,-109.17 605.15,-119.39 610.92,-115.43"/>
<text text-anchor="middle" x="734.69" y="-145.8" font-family="Times,serif" font-size="14.00">xyz: &#45;0.133333 0 &#45;0.085 </text>
<text text-anchor="middle" x="734.69" y="-130.8" font-family="Times,serif" font-size="14.00">rpy: 0 &#45;0 0</text>
</g>
<!-- right_front_wheel_joint -->
<g id="node24" class="node">
<title>right_front_wheel_joint</title>
<ellipse fill="none" stroke="blue" cx="845.19" cy="-91" rx="118.08" ry="18"/>
<text text-anchor="middle" x="845.19" y="-87.3" font-family="Times,serif" font-size="14.00" fill="blue">right_front_wheel_joint</text>
</g>
<!-- right_base&#45;&gt;right_front_wheel_joint -->
<g id="edge15" class="edge">
<title>right_base&#45;&gt;right_front_wheel_joint</title>
<path fill="none" stroke="black" d="M818.76,-174.58C823.67,-159.24 830.9,-136.65 836.56,-118.97"/>
<polygon fill="black" stroke="black" points="839.97,-119.81 839.68,-109.22 833.3,-117.68 839.97,-119.81"/>
<text text-anchor="middle" x="918.69" y="-145.8" font-family="Times,serif" font-size="14.00">xyz: 0.133333 0 &#45;0.085 </text>
<text text-anchor="middle" x="918.69" y="-130.8" font-family="Times,serif" font-size="14.00">rpy: 0 &#45;0 0</text>
</g>
<!-- right_back_wheel -->
<g id="node8" class="node">
<title>right_back_wheel</title>
<polygon fill="none" stroke="black" points="662.19,-36 522.19,-36 522.19,0 662.19,0 662.19,-36"/>
<text text-anchor="middle" x="592.19" y="-14.3" font-family="Times,serif" font-size="14.00">right_back_wheel</text>
</g>
<!-- right_front_wheel -->
<g id="node9" class="node">
<title>right_front_wheel</title>
<polygon fill="none" stroke="black" points="916.69,-36 773.69,-36 773.69,0 916.69,0 916.69,-36"/>
<text text-anchor="middle" x="845.19" y="-14.3" font-family="Times,serif" font-size="14.00">right_front_wheel</text>
</g>
<!-- gripper_pole -->
<g id="node10" class="node">
<title>gripper_pole</title>
<polygon fill="none" stroke="black" points="1071.69,-386 964.69,-386 964.69,-350 1071.69,-350 1071.69,-386"/>
<text text-anchor="middle" x="1018.19" y="-364.3" font-family="Times,serif" font-size="14.00">gripper_pole</text>
</g>
<!-- left_gripper_joint -->
<g id="node26" class="node">
<title>left_gripper_joint</title>
<ellipse fill="none" stroke="blue" cx="1010.19" cy="-266" rx="90.98" ry="18"/>
<text text-anchor="middle" x="1010.19" y="-262.3" font-family="Times,serif" font-size="14.00" fill="blue">left_gripper_joint</text>
</g>
<!-- gripper_pole&#45;&gt;left_gripper_joint -->
<g id="edge19" class="edge">
<title>gripper_pole&#45;&gt;left_gripper_joint</title>
<path fill="none" stroke="black" d="M1016.8,-349.58C1015.58,-334.38 1013.8,-312.07 1012.39,-294.46"/>
<polygon fill="black" stroke="black" points="1015.85,-293.91 1011.57,-284.22 1008.88,-294.47 1015.85,-293.91"/>
<text text-anchor="middle" x="1071.19" y="-320.8" font-family="Times,serif" font-size="14.00">xyz: 0.2 0.01 0 </text>
<text text-anchor="middle" x="1071.19" y="-305.8" font-family="Times,serif" font-size="14.00">rpy: 0 &#45;0 0</text>
</g>
<!-- right_gripper_joint -->
<g id="node28" class="node">
<title>right_gripper_joint</title>
<ellipse fill="none" stroke="blue" cx="1217.19" cy="-266" rx="98.28" ry="18"/>
<text text-anchor="middle" x="1217.19" y="-262.3" font-family="Times,serif" font-size="14.00" fill="blue">right_gripper_joint</text>
</g>
<!-- gripper_pole&#45;&gt;right_gripper_joint -->
<g id="edge23" class="edge">
<title>gripper_pole&#45;&gt;right_gripper_joint</title>
<path fill="none" stroke="black" d="M1071.78,-354.26C1090.78,-348.71 1111.96,-341.31 1130.19,-332 1152.07,-320.83 1174.21,-304.19 1190.68,-290.54"/>
<polygon fill="black" stroke="black" points="1193.37,-292.86 1198.75,-283.73 1188.85,-287.51 1193.37,-292.86"/>
<text text-anchor="middle" x="1232.69" y="-320.8" font-family="Times,serif" font-size="14.00">xyz: 0.2 &#45;0.01 0 </text>
<text text-anchor="middle" x="1232.69" y="-305.8" font-family="Times,serif" font-size="14.00">rpy: 0 &#45;0 0</text>
</g>
<!-- left_gripper -->
<g id="node11" class="node">
<title>left_gripper</title>
<polygon fill="none" stroke="black" points="1086.69,-211 985.69,-211 985.69,-175 1086.69,-175 1086.69,-211"/>
<text text-anchor="middle" x="1036.19" y="-189.3" font-family="Times,serif" font-size="14.00">left_gripper</text>
</g>
<!-- left_tip_joint -->
<g id="node27" class="node">
<title>left_tip_joint</title>
<ellipse fill="none" stroke="blue" cx="1050.19" cy="-91" rx="68.79" ry="18"/>
<text text-anchor="middle" x="1050.19" y="-87.3" font-family="Times,serif" font-size="14.00" fill="blue">left_tip_joint</text>
</g>
<!-- left_gripper&#45;&gt;left_tip_joint -->
<g id="edge21" class="edge">
<title>left_gripper&#45;&gt;left_tip_joint</title>
<path fill="none" stroke="black" d="M1038.63,-174.58C1040.76,-159.38 1043.88,-137.07 1046.35,-119.46"/>
<polygon fill="black" stroke="black" points="1049.86,-119.61 1047.78,-109.22 1042.93,-118.64 1049.86,-119.61"/>
<text text-anchor="middle" x="1083.19" y="-145.8" font-family="Times,serif" font-size="14.00">xyz: 0 0 0 </text>
<text text-anchor="middle" x="1083.19" y="-130.8" font-family="Times,serif" font-size="14.00">rpy: 0 &#45;0 0</text>
</g>
<!-- left_tip -->
<g id="node12" class="node">
<title>left_tip</title>
<polygon fill="none" stroke="black" points="1083.69,-36 1016.69,-36 1016.69,0 1083.69,0 1083.69,-36"/>
<text text-anchor="middle" x="1050.19" y="-14.3" font-family="Times,serif" font-size="14.00">left_tip</text>
</g>
<!-- right_gripper -->
<g id="node13" class="node">
<title>right_gripper</title>
<polygon fill="none" stroke="black" points="1273.19,-211 1161.19,-211 1161.19,-175 1273.19,-175 1273.19,-211"/>
<text text-anchor="middle" x="1217.19" y="-189.3" font-family="Times,serif" font-size="14.00">right_gripper</text>
</g>
<!-- right_tip_joint -->
<g id="node29" class="node">
<title>right_tip_joint</title>
<ellipse fill="none" stroke="blue" cx="1217.19" cy="-91" rx="76.09" ry="18"/>
<text text-anchor="middle" x="1217.19" y="-87.3" font-family="Times,serif" font-size="14.00" fill="blue">right_tip_joint</text>
</g>
<!-- right_gripper&#45;&gt;right_tip_joint -->
<g id="edge25" class="edge">
<title>right_gripper&#45;&gt;right_tip_joint</title>
<path fill="none" stroke="black" d="M1217.19,-174.58C1217.19,-159.38 1217.19,-137.07 1217.19,-119.46"/>
<polygon fill="black" stroke="black" points="1220.69,-119.22 1217.19,-109.22 1213.69,-119.22 1220.69,-119.22"/>
<text text-anchor="middle" x="1254.19" y="-145.8" font-family="Times,serif" font-size="14.00">xyz: 0 0 0 </text>
<text text-anchor="middle" x="1254.19" y="-130.8" font-family="Times,serif" font-size="14.00">rpy: 0 &#45;0 0</text>
</g>
<!-- right_tip -->
<g id="node14" class="node">
<title>right_tip</title>
<polygon fill="none" stroke="black" points="1256.19,-36 1178.19,-36 1178.19,0 1256.19,0 1256.19,-36"/>
<text text-anchor="middle" x="1217.19" y="-14.3" font-family="Times,serif" font-size="14.00">right_tip</text>
</g>
<!-- head -->
<g id="node15" class="node">
<title>head</title>
<polygon fill="none" stroke="black" points="1333.19,-386 1279.19,-386 1279.19,-350 1333.19,-350 1333.19,-386"/>
<text text-anchor="middle" x="1306.19" y="-364.3" font-family="Times,serif" font-size="14.00">head</text>
</g>
<!-- tobox -->
<g id="node31" class="node">
<title>tobox</title>
<ellipse fill="none" stroke="blue" cx="1370.19" cy="-266" rx="36.29" ry="18"/>
<text text-anchor="middle" x="1370.19" y="-262.3" font-family="Times,serif" font-size="14.00" fill="blue">tobox</text>
</g>
<!-- head&#45;&gt;tobox -->
<g id="edge29" class="edge">
<title>head&#45;&gt;tobox</title>
<path fill="none" stroke="black" d="M1317.34,-349.58C1327.46,-333.76 1342.52,-310.23 1353.98,-292.33"/>
<polygon fill="black" stroke="black" points="1357.15,-293.86 1359.6,-283.56 1351.26,-290.09 1357.15,-293.86"/>
<text text-anchor="middle" x="1425.69" y="-320.8" font-family="Times,serif" font-size="14.00">xyz: 0.1814 0 0.1414 </text>
<text text-anchor="middle" x="1425.69" y="-305.8" font-family="Times,serif" font-size="14.00">rpy: 0 &#45;0 0</text>
</g>
<!-- box -->
<g id="node16" class="node">
<title>box</title>
<polygon fill="none" stroke="black" points="1397.19,-211 1343.19,-211 1343.19,-175 1397.19,-175 1397.19,-211"/>
<text text-anchor="middle" x="1370.19" y="-189.3" font-family="Times,serif" font-size="14.00">box</text>
</g>
<!-- base_to_left_leg&#45;&gt;left_leg -->
<g id="edge2" class="edge">
<title>base_to_left_leg&#45;&gt;left_leg</title>
<path fill="none" stroke="black" d="M609.38,-422.81C606.64,-414.7 603.3,-404.84 600.24,-395.78"/>
<polygon fill="black" stroke="black" points="603.46,-394.38 596.95,-386.03 596.83,-396.62 603.46,-394.38"/>
</g>
<!-- left_base_joint&#45;&gt;left_base -->
<g id="edge4" class="edge">
<title>left_base_joint&#45;&gt;left_base</title>
<path fill="none" stroke="black" d="M462.29,-249.59C441.66,-239.63 414.51,-226.51 391.76,-215.53"/>
<polygon fill="black" stroke="black" points="393.16,-212.32 382.63,-211.12 390.11,-218.62 393.16,-212.32"/>
</g>
<!-- left_back_wheel_joint&#45;&gt;left_back_wheel -->
<g id="edge6" class="edge">
<title>left_back_wheel_joint&#45;&gt;left_back_wheel</title>
<path fill="none" stroke="black" d="M109.19,-72.81C109.19,-64.79 109.19,-55.05 109.19,-46.07"/>
<polygon fill="black" stroke="black" points="112.69,-46.03 109.19,-36.03 105.69,-46.03 112.69,-46.03"/>
</g>
<!-- left_front_wheel_joint&#45;&gt;left_front_wheel -->
<g id="edge8" class="edge">
<title>left_front_wheel_joint&#45;&gt;left_front_wheel</title>
<path fill="none" stroke="black" d="M347.19,-72.81C347.19,-64.79 347.19,-55.05 347.19,-46.07"/>
<polygon fill="black" stroke="black" points="350.69,-46.03 347.19,-36.03 343.69,-46.03 350.69,-46.03"/>
</g>
<!-- base_to_right_leg&#45;&gt;right_leg -->
<g id="edge10" class="edge">
<title>base_to_right_leg&#45;&gt;right_leg</title>
<path fill="none" stroke="black" d="M813.19,-422.81C813.19,-414.79 813.19,-405.05 813.19,-396.07"/>
<polygon fill="black" stroke="black" points="816.69,-396.03 813.19,-386.03 809.69,-396.03 816.69,-396.03"/>
</g>
<!-- right_base_joint&#45;&gt;right_base -->
<g id="edge12" class="edge">
<title>right_base_joint&#45;&gt;right_base</title>
<path fill="none" stroke="black" d="M813.19,-247.81C813.19,-239.79 813.19,-230.05 813.19,-221.07"/>
<polygon fill="black" stroke="black" points="816.69,-221.03 813.19,-211.03 809.69,-221.03 816.69,-221.03"/>
</g>
<!-- right_back_wheel_joint&#45;&gt;right_back_wheel -->
<g id="edge14" class="edge">
<title>right_back_wheel_joint&#45;&gt;right_back_wheel</title>
<path fill="none" stroke="black" d="M592.19,-72.81C592.19,-64.79 592.19,-55.05 592.19,-46.07"/>
<polygon fill="black" stroke="black" points="595.69,-46.03 592.19,-36.03 588.69,-46.03 595.69,-46.03"/>
</g>
<!-- right_front_wheel_joint&#45;&gt;right_front_wheel -->
<g id="edge16" class="edge">
<title>right_front_wheel_joint&#45;&gt;right_front_wheel</title>
<path fill="none" stroke="black" d="M845.19,-72.81C845.19,-64.79 845.19,-55.05 845.19,-46.07"/>
<polygon fill="black" stroke="black" points="848.69,-46.03 845.19,-36.03 841.69,-46.03 848.69,-46.03"/>
</g>
<!-- gripper_extension&#45;&gt;gripper_pole -->
<g id="edge18" class="edge">
<title>gripper_extension&#45;&gt;gripper_pole</title>
<path fill="none" stroke="black" d="M1018.19,-422.81C1018.19,-414.79 1018.19,-405.05 1018.19,-396.07"/>
<polygon fill="black" stroke="black" points="1021.69,-396.03 1018.19,-386.03 1014.69,-396.03 1021.69,-396.03"/>
</g>
<!-- left_gripper_joint&#45;&gt;left_gripper -->
<g id="edge20" class="edge">
<title>left_gripper_joint&#45;&gt;left_gripper</title>
<path fill="none" stroke="black" d="M1016.48,-247.81C1019.49,-239.62 1023.15,-229.62 1026.49,-220.48"/>
<polygon fill="black" stroke="black" points="1029.8,-221.62 1029.95,-211.03 1023.23,-219.22 1029.8,-221.62"/>
</g>
<!-- left_tip_joint&#45;&gt;left_tip -->
<g id="edge22" class="edge">
<title>left_tip_joint&#45;&gt;left_tip</title>
<path fill="none" stroke="black" d="M1050.19,-72.81C1050.19,-64.79 1050.19,-55.05 1050.19,-46.07"/>
<polygon fill="black" stroke="black" points="1053.69,-46.03 1050.19,-36.03 1046.69,-46.03 1053.69,-46.03"/>
</g>
<!-- right_gripper_joint&#45;&gt;right_gripper -->
<g id="edge24" class="edge">
<title>right_gripper_joint&#45;&gt;right_gripper</title>
<path fill="none" stroke="black" d="M1217.19,-247.81C1217.19,-239.79 1217.19,-230.05 1217.19,-221.07"/>
<polygon fill="black" stroke="black" points="1220.69,-221.03 1217.19,-211.03 1213.69,-221.03 1220.69,-221.03"/>
</g>
<!-- right_tip_joint&#45;&gt;right_tip -->
<g id="edge26" class="edge">
<title>right_tip_joint&#45;&gt;right_tip</title>
<path fill="none" stroke="black" d="M1217.19,-72.81C1217.19,-64.79 1217.19,-55.05 1217.19,-46.07"/>
<polygon fill="black" stroke="black" points="1220.69,-46.03 1217.19,-36.03 1213.69,-46.03 1220.69,-46.03"/>
</g>
<!-- head_swivel&#45;&gt;head -->
<g id="edge28" class="edge">
<title>head_swivel&#45;&gt;head</title>
<path fill="none" stroke="black" d="M1258.12,-423.17C1265.93,-414.37 1275.64,-403.43 1284.28,-393.69"/>
<polygon fill="black" stroke="black" points="1286.91,-396 1290.93,-386.2 1281.67,-391.36 1286.91,-396"/>
</g>
<!-- tobox&#45;&gt;box -->
<g id="edge30" class="edge">
<title>tobox&#45;&gt;box</title>
<path fill="none" stroke="black" d="M1370.19,-247.81C1370.19,-239.79 1370.19,-230.05 1370.19,-221.07"/>
<polygon fill="black" stroke="black" points="1373.69,-221.03 1370.19,-211.03 1366.69,-221.03 1373.69,-221.03"/>
</g>
</g>
</svg>
